<?xml version="1.0" encoding="utf-8"?>
<!-- Generator: Adobe Illustrator 19.1.0, SVG Export Plug-In . SVG Version: 6.00 Build 0)  -->
<svg version="1.1" id="Layer_1" xmlns="http://www.w3.org/2000/svg" xmlns:xlink="http://www.w3.org/1999/xlink" x="0px" y="0px"
	 viewBox="988 -451.5 1600 1243.7" style="enable-background:new 988 -451.5 1600 1243.7;" width="1600px" height="1244px" xml:space="preserve">
<style type="text/css">
	.st0{fill:none;}
	.st1{fill:#BCBCBC;}
	.st2{opacity:5.000000e-002;}
	.st3{fill:#FFFFFF;stroke:#E8E8E8;stroke-miterlimit:10;}
	.st4{fill:#E2E2E2;stroke:#E2E2E2;stroke-miterlimit:10;}
	.st5{fill:#F6F6F6;}
	.st6{fill:#F2F2F2;}
	.st7{fill:#5D5EF4;}
	.st8{fill:#FFFFFF;}
	.st9{fill:#DDDDDD;}
	.st10{fill:none;stroke:#E8E8E8;stroke-miterlimit:10;}
	.st11{fill:#1178F2;}
	.st12{fill:#B12CFF;}
	.st13{fill:#E2E2E2;}
	.st14{fill:#4285F4;}
	.st15{fill:#EA4335;}
	.st16{fill:#FBBC05;}
	.st17{fill:#34A853;}
	.st18{fill:none;stroke:#E2E2E2;stroke-width:2;stroke-miterlimit:10;}
	.st19{fill:#3C4043;}
	.st20{fill:#5E6263;}
	.st21{fill:#1C31F7;}
</style>
<g>
	<rect x="988" y="-451.5" class="st0" width="1600" height="1243.7"/>
</g>
<g>
	<g>
		<rect x="1786.5" y="-137.7" class="st1" width="4" height="294.6"/>
	</g>
	<g>
		<path class="st1" d="M1848.6,156.9h-4V87.4c0-16.2,13.2-29.5,29.5-29.5h459.2c14,0,25.5-11.4,25.5-25.5v-72.1h4v72.1
			c0,16.2-13.2,29.5-29.5,29.5H1874c-14,0-25.5,11.4-25.5,25.5L1848.6,156.9L1848.6,156.9z"/>
	</g>
	<g>
		<path class="st1" d="M1732.4,159.5h-4V87.4c0-14-11.4-25.5-25.5-25.5h-399.4c-16.2,0-29.5-13.2-29.5-29.5v-176.6h4V32.4
			c0,14,11.4,25.5,25.5,25.5H1703c16.2,0,29.5,13.2,29.5,29.5L1732.4,159.5L1732.4,159.5z"/>
	</g>
</g>
<g>
	<g>
		<g>
			<g class="st2">
				<g>
					<path d="M2158.2,688.1h-760.4c-5.2,0-9.4-4.2-9.4-9.4V178.9c0-6.3,5.1-11.5,11.5-11.5h756.2c6.3,0,11.5,5.1,11.5,11.5v499.9
						C2167.6,684,2163.4,688.1,2158.2,688.1z"/>
				</g>
			</g>
			<g>
				<path class="st3" d="M2168.2,668.1h-760.4c-5.2,0-9.4-4.2-9.4-9.4V158.9c0-6.3,5.1-11.5,11.5-11.5h756.2
					c6.3,0,11.5,5.1,11.5,11.5v499.9C2177.6,664,2173.4,668.1,2168.2,668.1z"/>
			</g>
			<g>
				<path class="st4" d="M2177.6,186.8h-779.2v-30c0-5.2,4.2-9.4,9.4-9.4h760.4c5.2,0,9.4,4.2,9.4,9.4V186.8L2177.6,186.8z"/>
			</g>
		</g>
		<g>
			<g>
				<g>
					<ellipse class="st5" cx="1473.2" cy="167.1" rx="5.4" ry="5.6"/>
				</g>
				<g>
					<ellipse class="st5" cx="1451.1" cy="167.1" rx="5.4" ry="5.6"/>
				</g>
				<g>
					<ellipse class="st5" cx="1429" cy="167.1" rx="5.4" ry="5.6"/>
				</g>
			</g>
		</g>
	</g>
	<g>
		<g>
			<rect x="1465.9" y="291" class="st6" width="309.9" height="10.1"/>
		</g>
		<g>
			<rect x="1465.9" y="342.6" class="st6" width="212.9" height="10.1"/>
		</g>
		<g>
			<rect x="1465.9" y="316.8" class="st6" width="309.9" height="10.1"/>
		</g>
		<g>
			<rect x="1465.9" y="241" class="st6" width="309.9" height="17.5"/>
		</g>
	</g>
	<g>
		<g>
			<path class="st7" d="M1773.7,534.8h-301.4c-3.5,0-6.4-2.8-6.4-6.4v-38.1c0-3.5,2.8-6.4,6.4-6.4h301.4c3.5,0,6.4,2.8,6.4,6.4v38
				C1780.1,532,1777.2,534.8,1773.7,534.8z"/>
		</g>
		<g>
			<path class="st8" d="M1605.4,510.2L1605.4,510.2c0-3.6,2.7-6.6,6.6-6.6c2.4,0,3.8,0.8,5,1.9l-1.8,2c-1-0.9-2-1.4-3.2-1.4
				c-2.1,0-3.7,1.8-3.7,3.9l0,0c0,2.2,1.5,4,3.7,4c1.4,0,2.3-0.6,3.3-1.5l1.8,1.8c-1.3,1.4-2.7,2.3-5.2,2.3
				C1608.1,516.6,1605.4,513.8,1605.4,510.2z"/>
			<path class="st8" d="M1622.6,506.4h-3.8v-2.6h10.4v2.6h-3.8v10h-2.8L1622.6,506.4L1622.6,506.4z"/>
			<path class="st8" d="M1634.5,503.7h2.6l5.4,12.7h-2.9l-1.2-2.8h-5.4l-1.2,2.8h-2.8L1634.5,503.7z M1637.4,511.1l-1.7-4.1
				l-1.7,4.1H1637.4z"/>
		</g>
	</g>
	<g>
		<g>
			<path class="st6" d="M2101.6,534.8H1872c-4.7,0-8.5-3.8-8.5-8.5V249.5c0-4.7,3.8-8.5,8.5-8.5h229.6c4.7,0,8.5,3.8,8.5,8.5v276.8
				C2110.1,531,2106.3,534.8,2101.6,534.8z"/>
		</g>
		<g>
			<g>
				<path class="st9" d="M2058.9,441.9h-144.3V333.7h144.3V441.9z M1916.6,439.9h140.3V335.7h-140.3V439.9z"/>
			</g>
			<g>
				<path class="st9" d="M2058.9,441.9h-144.3V333.7h144.3V441.9z M1916.6,439.9h140.3V335.7h-140.3V439.9z"/>
			</g>
			<g>
				<polygon class="st9" points="1957.7,441.6 1956.3,440.2 2035.9,360.6 2058.7,383.3 2057.2,384.8 2035.9,363.4 				"/>
			</g>
			<g>
				<polygon class="st9" points="1916.6,441.8 1915.1,440.4 1973.4,382.2 1994.5,403.4 1993.1,404.8 1973.4,385 				"/>
			</g>
			<g>
				<path class="st9" d="M1945.9,376.8c-6.7,0-12.1-5.4-12.1-12.1s5.4-12.1,12.1-12.1s12.1,5.4,12.1,12.1S1952.5,376.8,1945.9,376.8
					z M1945.9,354.5c-5.6,0-10.1,4.5-10.1,10.1s4.5,10.1,10.1,10.1s10.1-4.5,10.1-10.1S1951.4,354.5,1945.9,354.5z"/>
			</g>
		</g>
	</g>
	<g>
		<g>
			<path class="st7" d="M1773.7,419.3c2.4,0,4.4,2,4.4,4.4v38.1c0,2.4-2,4.4-4.4,4.4h-301.4c-2.4,0-4.4-2-4.4-4.4v-38.1
				c0-2.4,2-4.4,4.4-4.4H1773.7 M1773.7,417.3h-301.4c-3.5,0-6.4,2.8-6.4,6.4v38.1c0,3.5,2.8,6.4,6.4,6.4h301.4
				c3.5,0,6.4-2.8,6.4-6.4v-38.1C1780.1,420.1,1777.2,417.3,1773.7,417.3L1773.7,417.3z"/>
		</g>
	</g>
	<line class="st10" x1="1398.4" y1="607.3" x2="2177.6" y2="607.3"/>
</g>
<g>
	<g class="st2">
		<g>
			<rect x="1078.6" y="-327.5" width="394.8" height="308.9"/>
		</g>
	</g>
	<g>
		<g>
			<g>
				<rect x="1088.6" y="-347.5" class="st3" width="394.8" height="308.9"/>
			</g>
		</g>
	</g>
	<g>
		<g>
			<rect x="1125.7" y="-276" class="st6" width="320.7" height="180"/>
		</g>
	</g>
	<g>
		<g>
			<g>
				<rect x="1177" y="-319.3" class="st6" width="166.6" height="6.1"/>
			</g>
			<g>
				<rect x="1177" y="-302.3" class="st6" width="57.1" height="6.1"/>
			</g>
		</g>
		<g>
			<circle class="st6" cx="1143.1" cy="-307.7" r="17"/>
		</g>
	</g>
	<g>
		<g>
			<path class="st11" d="M1335-183.4c0-27.1-21.9-49-49-49s-49,21.9-49,49c0,24.5,17.9,44.7,41.3,48.4v-34.2h-12.4v-14.2h12.4v-10.8
				c0-12.3,7.3-19.1,18.5-19.1c5.4,0,11,1,11,1v12.1h-6.2c-6.1,0-8,3.8-8,7.7v9.2h13.6l-2.2,14.2h-11.4v34.2
				C1317.1-138.7,1335-159,1335-183.4z"/>
		</g>
		<g>
			<path class="st8" d="M1305.1-169.2l2.2-14.2h-13.6v-9.3c0-3.9,1.9-7.7,8-7.7h6.2v-12.1c0,0-5.6-1-11-1
				c-11.2,0-18.5,6.8-18.5,19.1v10.8H1266v14.2h12.4v34.2c2.5,0.4,5.1,0.6,7.7,0.6c2.6,0,5.2-0.2,7.7-0.6v-34.2h11.3L1305.1-169.2
				L1305.1-169.2z"/>
		</g>
	</g>
	<g>
		<g>
			<rect x="1126.1" y="-74.6" class="st11" width="285.3" height="7.1"/>
		</g>
	</g>
</g>
<g>
	<g class="st2">
		<g>
			<rect x="2232.2" y="-327.5" width="236.9" height="308.9"/>
		</g>
	</g>
	<g>
		<rect x="2242.2" y="-347.5" class="st3" width="236.9" height="308.9"/>
	</g>
</g>
<g>
	<path class="st12" d="M2377.2-310.8h-33c-2.3,0-4.1,1.9-4.1,4.1v24.8c0,2.3,1.9,4.1,4.1,4.1h33c2.3,0,4.1-1.9,4.1-4.1v-24.8
		C2381.3-309,2379.5-310.8,2377.2-310.8z M2377.2-302.6l-16.5,10.3l-16.5-10.3v-4.1l16.5,10.3l16.5-10.3V-302.6z"/>
</g>
<g>
	<path class="st13" d="M2457-173.8c2,0,3.7,1.7,3.7,3.7v27.9c0,2-1.7,3.7-3.7,3.7h-192.6c-2,0-3.7-1.7-3.7-3.7v-27.9
		c0-2,1.7-3.7,3.7-3.7L2457-173.8 M2457-175.8h-192.6c-3.2,0-5.7,2.6-5.7,5.7v27.9c0,3.2,2.6,5.7,5.7,5.7H2457
		c3.2,0,5.7-2.6,5.7-5.7v-27.9C2462.7-173.2,2460.1-175.8,2457-175.8L2457-175.8z"/>
</g>
<g>
	<path class="st12" d="M2457-83.6h-192.6c-3.2,0-5.7-2.6-5.7-5.7v-27.9c0-3.2,2.6-5.7,5.7-5.7H2457c3.2,0,5.7,2.6,5.7,5.7v27.9
		C2462.7-86.2,2460.1-83.6,2457-83.6z"/>
</g>
<g>
	<rect x="2258.7" y="-244.7" class="st6" width="204" height="8.7"/>
</g>
<g>
	<rect x="2281.2" y="-217.6" class="st6" width="159" height="8.7"/>
</g>
<g>
	<path class="st8" d="M2321.5-98.7l1.6-2c1.1,0.9,2.3,1.5,3.8,1.5c1.1,0,1.8-0.5,1.8-1.2l0,0c0-0.7-0.4-1.1-2.5-1.6
		c-2.5-0.6-4.2-1.4-4.2-3.9l0,0c0-2.3,1.8-3.8,4.4-3.8c1.8,0,3.4,0.6,4.7,1.6l-1.4,2.1c-1.1-0.8-2.2-1.2-3.3-1.2
		c-1.1,0-1.6,0.5-1.6,1.1l0,0c0,0.8,0.5,1.1,2.7,1.7c2.6,0.7,4,1.6,4,3.8l0,0c0,2.5-1.9,3.9-4.6,3.9
		C2325-96.7,2323-97.4,2321.5-98.7z"/>
	<path class="st8" d="M2334.5-109.5h2.8v12.6h-2.8V-109.5z"/>
	<path class="st8" d="M2340.3-103.2L2340.3-103.2c0-3.6,2.8-6.6,6.6-6.6c2.3,0,3.6,0.6,5,1.7l-1.7,2.1c-1-0.8-1.8-1.3-3.3-1.3
		c-2,0-3.6,1.8-3.6,3.9l0,0c0,2.3,1.6,4,3.8,4c1,0,1.9-0.3,2.6-0.8v-1.8h-2.8v-2.4h5.5v5.5c-1.3,1.1-3.1,2-5.4,2
		C2343-96.7,2340.3-99.4,2340.3-103.2z"/>
	<path class="st8" d="M2355.4-109.5h2.6l5.9,7.8v-7.8h2.7v12.6h-2.4l-6.1-8v8h-2.7V-109.5z"/>
	<path class="st8" d="M2375.7-102.3v-7.2h2.8v7.1c0,2.1,1,3.1,2.7,3.1s2.7-1,2.7-3v-7.2h2.8v7.1c0,3.8-2.1,5.7-5.5,5.7
		C2377.8-96.7,2375.7-98.6,2375.7-102.3z"/>
	<path class="st8" d="M2390-109.5h5.1c3,0,4.8,1.8,4.8,4.4l0,0c0,2.9-2.3,4.4-5.1,4.4h-2.1v3.8h-2.8L2390-109.5L2390-109.5z
		 M2395-103.1c1.4,0,2.2-0.8,2.2-1.9l0,0c0-1.2-0.9-1.9-2.3-1.9h-2.1v3.9L2395-103.1L2395-103.1L2395-103.1z"/>
</g>
<g>
	<g>
		<g class="st2">
			<g>
				<rect x="1563.1" y="-327.5" width="577.4" height="308.9"/>
			</g>
		</g>
		<g>
			<g>
				<g>
					<rect x="1573.1" y="-347.5" class="st3" width="577.4" height="308.9"/>
				</g>
			</g>
		</g>
		<g>
			<g>
				<path class="st14" d="M2086.3-286.8h-1l-0.3-0.3c1.2-1.4,2-3.3,2-5.3c0-4.5-3.6-8.1-8.1-8.1s-8.1,3.6-8.1,8.1s3.6,8.1,8.1,8.1
					c2,0,3.9-0.7,5.3-2l0.3,0.3v1l6.2,6.2l1.9-1.9L2086.3-286.8z M2078.8-286.8c-3.1,0-5.6-2.5-5.6-5.6s2.5-5.6,5.6-5.6
					s5.6,2.5,5.6,5.6C2084.5-289.3,2082-286.8,2078.8-286.8z"/>
			</g>
			<g>
				<g>
					<path class="st15" d="M1667.9-288.5c0,5.7-4.5,9.9-9.9,9.9s-9.9-4.2-9.9-9.9s4.5-9.9,9.9-9.9S1667.9-294.3,1667.9-288.5z
						 M1663.6-288.5c0-3.6-2.6-6-5.6-6s-5.6,2.4-5.6,6c0,3.5,2.6,6,5.6,6S1663.6-285,1663.6-288.5z"/>
				</g>
				<g>
					<path class="st16" d="M1689.4-288.5c0,5.7-4.5,9.9-9.9,9.9s-9.9-4.2-9.9-9.9s4.5-9.9,9.9-9.9S1689.4-294.3,1689.4-288.5z
						 M1685-288.5c0-3.6-2.6-6-5.6-6s-5.6,2.4-5.6,6c0,3.5,2.6,6,5.6,6S1685-285,1685-288.5z"/>
				</g>
				<g>
					<path class="st14" d="M1710-297.8v17.8c0,7.3-4.3,10.3-9.4,10.3c-4.8,0-7.7-3.2-8.8-5.8l3.8-1.6c0.7,1.6,2.3,3.5,5,3.5
						c3.3,0,5.3-2,5.3-5.8v-1.4h-0.2c-1,1.2-2.9,2.3-5.2,2.3c-5,0-9.5-4.3-9.5-9.9s4.5-9.9,9.5-9.9c2.4,0,4.2,1.1,5.2,2.2h0.2v-1.6
						L1710-297.8L1710-297.8z M1706.1-288.5c0-3.5-2.3-6-5.3-6s-5.5,2.6-5.5,6c0,3.5,2.5,6,5.5,6S1706.1-285,1706.1-288.5z"/>
				</g>
				<g>
					<path class="st17" d="M1716.8-308.3v29.1h-4.2v-29.1H1716.8z"/>
				</g>
				<g>
					<path class="st15" d="M1733.3-285.3l3.4,2.3c-1.1,1.6-3.7,4.4-8.3,4.4c-5.6,0-9.8-4.4-9.8-9.9c0-5.9,4.2-9.9,9.4-9.9
						c5.1,0,7.7,4.1,8.5,6.3l0.5,1.1l-13.3,5.5c1,2,2.6,3,4.8,3C1730.7-282.5,1732.2-283.6,1733.3-285.3L1733.3-285.3z
						 M1722.9-288.8l8.9-3.7c-0.5-1.2-2-2.1-3.7-2.1C1725.9-294.6,1722.8-292.7,1722.9-288.8z"/>
				</g>
				<g>
					<path class="st14" d="M1632-291.1v-4.2h14.2c0.1,0.7,0.2,1.6,0.2,2.5c0,3.2-0.9,7.1-3.6,9.8c-2.7,2.8-6.2,4.3-10.7,4.3
						c-8.5,0-15.6-6.9-15.6-15.4s7.1-15.4,15.6-15.4c4.7,0,8,1.8,10.5,4.2l-3,3c-1.8-1.7-4.2-3-7.6-3c-6.2,0-11,5-11,11.2
						s4.8,11.2,11,11.2c4,0,6.3-1.6,7.8-3.1c1.2-1.2,2-2.9,2.3-5.2L1632-291.1z"/>
				</g>
			</g>
			<g>
				<rect x="1782.3" y="-293.3" class="st6" width="171.1" height="7.5"/>
			</g>
			<path class="st18" d="M2091.5-271.4h-316.6c-9.5,0-17.3-7.7-17.3-17.3v-1.3c0-9.5,7.7-17.3,17.3-17.3h316.6
				c9.5,0,17.3,7.7,17.3,17.3v1.3C2108.8-279.1,2101.1-271.4,2091.5-271.4z"/>
		</g>
		<g>
			<g>
				<g>
					<path class="st19" d="M1625.1-184.4h-4.8l-0.9,2.7h-2.9l5-13.3h2.5l5,13.3h-3L1625.1-184.4z M1621-186.6h3.3l-1.7-5L1621-186.6
						z"/>
					<path class="st19" d="M1629.6-186.7c0-1.5,0.3-2.8,1-3.7c0.7-0.9,1.6-1.4,2.8-1.4c1,0,1.8,0.4,2.4,1.1v-5h2.6v14h-2.4l-0.1-1.1
						c-0.7,0.8-1.5,1.2-2.5,1.2c-1.2,0-2.1-0.5-2.8-1.4C1629.9-183.8,1629.6-185,1629.6-186.7z M1632.2-186.5c0,0.9,0.2,1.6,0.5,2.1
						s0.8,0.7,1.4,0.7c0.8,0,1.4-0.3,1.7-1v-3.9c-0.3-0.7-0.9-1-1.7-1C1632.8-189.6,1632.2-188.6,1632.2-186.5z"/>
				</g>
				<g>
					<circle class="st19" cx="1648.8" cy="-187.8" r="1.9"/>
				</g>
				<g>
					<polygon class="st19" points="1885.4,-191.5 1880.1,-184.8 1874.7,-191.5 					"/>
				</g>
			</g>
			<g>
				<rect x="1664.3" y="-191.2" class="st20" width="199.3" height="6.8"/>
			</g>
		</g>
		<g>
			<rect x="1616.4" y="-154.6" class="st21" width="430.8" height="13.3"/>
		</g>
		<g>
			<g>
				<rect x="1616.4" y="-117.5" class="st6" width="471.3" height="8.7"/>
			</g>
			<g>
				<rect x="1616.4" y="-95.3" class="st6" width="471.3" height="8.7"/>
			</g>
		</g>
		<line class="st10" x1="1573.1" y1="-233.1" x2="2150.6" y2="-233.1"/>
	</g>
	<g>
		<g id="g17480_2_" transform="translate(646.3034,236.3789)">
			<path id="path17482_2_" class="st14" d="M1402.7-522.7c1.8,0,3.3-1.5,3.3-3.3l0-7.7c0-1.8-1.5-3.3-3.3-3.3
				c-1.8,0-3.3,1.5-3.3,3.3v7.7C1399.4-524.1,1400.9-522.7,1402.7-522.7"/>
		</g>
		<g id="g17484_2_" transform="translate(645.4803,233.1492)">
			<path id="path17486_2_" class="st17" d="M1402.4-516.1L1402.4-516.1v4.5h2.2v-4.4c-0.4,0.1-0.7,0-1.1,0
				C1403.2-516,1402.8-516.1,1402.4-516.1"/>
		</g>
		<g id="g17488_2_" transform="translate(643.3809,235.9115)">
			<path id="path17490_2_" class="st16" d="M1401.7-521.6c-1-1-1.6-2.2-1.6-3.8h-2.2c0,2.2,0.9,4,2.3,5.4l0,0c0,0,0,0,0,0
				L1401.7-521.6z"/>
		</g>
		<g id="g17492_2_" transform="translate(650.4081,238.79)">
			<path id="path17494_2_" class="st15" d="M1404.1-528.3c0,2.8-2.4,5.5-5.5,5.5c-1.5,0-2.9-0.6-3.9-1.6l0,0l-1.5,1.5c0,0,0,0,0,0
				c1.1,1.1,2.7,1.9,4.3,2.2c0.4,0.1,0.7,0.1,1.1,0.1c0.4,0,0.7,0,1.1,0c3.7-0.5,6.6-3.7,6.6-7.6H1404.1z"/>
		</g>
	</g>
</g>
</svg>
