<?xml version="1.0" encoding="UTF-8"?>
<svg width="130px" height="43px" viewBox="0 0 130 43" version="1.1" xmlns="http://www.w3.org/2000/svg" xmlns:xlink="http://www.w3.org/1999/xlink">
    <title>tricep</title>
    <g id="Page-1" stroke="none" stroke-width="1" fill="none" fill-rule="evenodd">
        <g id="Artboard" transform="translate(-76.000000, -513.000000)" fill="#3ABAB4" fill-rule="nonzero">
            <path d="M87.952,547.512 C88.624,547.512 89.312,547.496 90.016,547.464 C90.72,547.432 91.36,547.368 91.936,547.272 L91.936,541.992 C91.616,542.056 91.28,542.104 90.928,542.136 C90.576,542.168 90.208,542.184 89.824,542.184 C88.672,542.184 87.904,541.992 87.52,541.608 C87.136,541.224 86.944,540.456 86.944,539.304 L86.944,527.016 L91.936,527.016 L91.936,522.456 L86.944,522.456 L86.944,515.016 L80.128,515.016 L80.128,522.456 L76,522.456 L76,527.016 L80.128,527.016 L80.128,541.656 C80.128,542.904 80.336,543.912 80.752,544.68 C81.168,545.448 81.736,546.04 82.456,546.456 C83.176,546.872 84.008,547.152 84.952,547.296 C85.896,547.44 86.896,547.512 87.952,547.512 Z M99.916,547.272 L99.916,536.088 C99.916,534.968 100.028,533.928 100.252,532.968 C100.476,532.008 100.852,531.168 101.38,530.448 C101.908,529.728 102.604,529.16 103.468,528.744 C104.332,528.328 105.388,528.12 106.636,528.12 C107.052,528.12 107.484,528.144 107.932,528.192 C108.38,528.24 108.764,528.296 109.084,528.36 L109.084,522.024 C108.54,521.864 108.044,521.784 107.596,521.784 C106.732,521.784 105.9,521.912 105.1,522.168 C104.3,522.424 103.548,522.784 102.844,523.248 C102.14,523.712 101.516,524.272 100.972,524.928 C100.428,525.584 99.996,526.296 99.676,527.064 L99.58,527.064 L99.58,522.456 L93.1,522.456 L93.1,547.272 L99.916,547.272 Z M116.68,518.616 L116.68,513 L109.864,513 L109.864,518.616 L116.68,518.616 Z M116.68,547.272 L116.68,522.456 L109.864,522.456 L109.864,547.272 L116.68,547.272 Z M131.716,547.896 C135.012,547.896 137.716,547.032 139.828,545.304 C141.94,543.576 143.22,541.064 143.668,537.768 L137.092,537.768 C136.868,539.304 136.316,540.528 135.436,541.44 C134.556,542.352 133.3,542.808 131.668,542.808 C130.612,542.808 129.716,542.568 128.98,542.088 C128.244,541.608 127.66,540.992 127.228,540.24 C126.796,539.488 126.484,538.648 126.292,537.72 C126.1,536.792 126.004,535.88 126.004,534.984 C126.004,534.056 126.1,533.12 126.292,532.176 C126.484,531.232 126.812,530.368 127.276,529.584 C127.74,528.8 128.34,528.16 129.076,527.664 C129.812,527.168 130.724,526.92 131.812,526.92 C134.724,526.92 136.404,528.344 136.852,531.192 L143.524,531.192 C143.428,529.592 143.044,528.208 142.372,527.04 C141.7,525.872 140.828,524.896 139.756,524.112 C138.684,523.328 137.468,522.744 136.108,522.36 C134.748,521.976 133.332,521.784 131.86,521.784 C129.844,521.784 128.052,522.12 126.484,522.792 C124.916,523.464 123.588,524.4 122.5,525.6 C121.412,526.8 120.588,528.224 120.028,529.872 C119.468,531.52 119.188,533.304 119.188,535.224 C119.188,537.08 119.492,538.784 120.1,540.336 C120.708,541.888 121.556,543.224 122.644,544.344 C123.732,545.464 125.052,546.336 126.604,546.96 C128.156,547.584 129.86,547.896 131.716,547.896 Z M156.88,547.896 C159.696,547.896 162.096,547.256 164.08,545.976 C166.064,544.696 167.536,542.568 168.496,539.592 L162.496,539.592 C162.272,540.36 161.664,541.088 160.672,541.776 C159.68,542.464 158.496,542.808 157.12,542.808 C155.2,542.808 153.728,542.312 152.704,541.32 C151.68,540.328 151.12,538.728 151.024,536.52 L168.928,536.52 C169.056,534.6 168.896,532.76 168.448,531 C168,529.24 167.272,527.672 166.264,526.296 C165.256,524.92 163.968,523.824 162.4,523.008 C160.832,522.192 158.992,521.784 156.88,521.784 C154.992,521.784 153.272,522.12 151.72,522.792 C150.168,523.464 148.832,524.384 147.712,525.552 C146.592,526.72 145.728,528.104 145.12,529.704 C144.512,531.304 144.208,533.032 144.208,534.888 C144.208,536.808 144.504,538.568 145.096,540.168 C145.688,541.768 146.528,543.144 147.616,544.296 C148.704,545.448 150.032,546.336 151.6,546.96 C153.168,547.584 154.928,547.896 156.88,547.896 Z M162.112,532.2 L151.024,532.2 C151.056,531.72 151.16,531.176 151.336,530.568 C151.512,529.96 151.816,529.384 152.248,528.84 C152.68,528.296 153.256,527.84 153.976,527.472 C154.696,527.104 155.6,526.92 156.688,526.92 C158.352,526.92 159.592,527.368 160.408,528.264 C161.224,529.16 161.792,530.472 162.112,532.2 Z M177.676,555.96 L177.676,544.2 L177.772,544.2 C178.604,545.416 179.668,546.336 180.964,546.96 C182.26,547.584 183.676,547.896 185.212,547.896 C187.036,547.896 188.628,547.544 189.988,546.84 C191.348,546.136 192.484,545.192 193.396,544.008 C194.308,542.824 194.988,541.464 195.436,539.928 C195.884,538.392 196.108,536.792 196.108,535.128 C196.108,533.368 195.884,531.68 195.436,530.064 C194.988,528.448 194.3,527.032 193.372,525.816 C192.444,524.6 191.276,523.624 189.868,522.888 C188.46,522.152 186.78,521.784 184.828,521.784 C183.292,521.784 181.884,522.088 180.604,522.696 C179.324,523.304 178.268,524.28 177.436,525.624 L177.34,525.624 L177.34,522.456 L170.86,522.456 L170.86,555.96 L177.676,555.96 Z M183.388,542.808 C182.3,542.808 181.372,542.584 180.604,542.136 C179.836,541.688 179.22,541.104 178.756,540.384 C178.292,539.664 177.956,538.824 177.748,537.864 C177.54,536.904 177.436,535.928 177.436,534.936 C177.436,533.912 177.532,532.92 177.724,531.96 C177.916,531 178.244,530.152 178.708,529.416 C179.172,528.68 179.78,528.08 180.532,527.616 C181.284,527.152 182.22,526.92 183.34,526.92 C184.428,526.92 185.348,527.152 186.1,527.616 C186.852,528.08 187.468,528.688 187.948,529.44 C188.428,530.192 188.772,531.048 188.98,532.008 C189.188,532.968 189.292,533.944 189.292,534.936 C189.292,535.928 189.196,536.904 189.004,537.864 C188.812,538.824 188.484,539.664 188.02,540.384 C187.556,541.104 186.948,541.688 186.196,542.136 C185.444,542.584 184.508,542.808 183.388,542.808 Z M205.912,547.272 L205.912,539.88 L198.376,539.88 L198.376,547.272 L205.912,547.272 Z" id="tricep."></path>
        </g>
    </g>
</svg>