<?xml version="1.0" encoding="UTF-8"?>
<svg width="131px" height="44px" viewBox="0 0 131 44" version="1.1" xmlns="http://www.w3.org/2000/svg" xmlns:xlink="http://www.w3.org/1999/xlink">
    <title>tricep</title>
    <defs>
        <linearGradient x1="0%" y1="44.5323587%" x2="101.999998%" y2="55.576994%" id="linearGradient-1">
            <stop stop-color="#3ABAB4" offset="0%"></stop>
            <stop stop-color="#667EEA" offset="100%"></stop>
        </linearGradient>
    </defs>
    <g id="Page-1" stroke="none" stroke-width="1" fill="none" fill-rule="evenodd">
        <g id="Artboard" transform="translate(-79.000000, -424.000000)" fill="url(#linearGradient-1)" fill-rule="nonzero">
            <path d="M91.24,459.24 C91.912,459.24 92.6,459.224 93.304,459.192 C94.008,459.16 94.648,459.096 95.224,459 L95.224,453.72 C94.904,453.784 94.568,453.832 94.216,453.864 C93.864,453.896 93.496,453.912 93.112,453.912 C91.96,453.912 91.192,453.72 90.808,453.336 C90.424,452.952 90.232,452.184 90.232,451.032 L90.232,438.744 L95.224,438.744 L95.224,434.184 L90.232,434.184 L90.232,426.744 L83.416,426.744 L83.416,434.184 L79.288,434.184 L79.288,438.744 L83.416,438.744 L83.416,453.384 C83.416,454.632 83.624,455.64 84.04,456.408 C84.456,457.176 85.024,457.768 85.744,458.184 C86.464,458.6 87.296,458.88 88.24,459.024 C89.184,459.168 90.184,459.24 91.24,459.24 Z M103.204,459 L103.204,447.816 C103.204,446.696 103.316,445.656 103.54,444.696 C103.764,443.736 104.14,442.896 104.668,442.176 C105.196,441.456 105.892,440.888 106.756,440.472 C107.62,440.056 108.676,439.848 109.924,439.848 C110.34,439.848 110.772,439.872 111.22,439.92 C111.668,439.968 112.052,440.024 112.372,440.088 L112.372,433.752 C111.828,433.592 111.332,433.512 110.884,433.512 C110.02,433.512 109.188,433.64 108.388,433.896 C107.588,434.152 106.836,434.512 106.132,434.976 C105.428,435.44 104.804,436 104.26,436.656 C103.716,437.312 103.284,438.024 102.964,438.792 L102.868,438.792 L102.868,434.184 L96.388,434.184 L96.388,459 L103.204,459 Z M119.968,430.344 L119.968,424.728 L113.152,424.728 L113.152,430.344 L119.968,430.344 Z M119.968,459 L119.968,434.184 L113.152,434.184 L113.152,459 L119.968,459 Z M135.004,459.624 C138.3,459.624 141.004,458.76 143.116,457.032 C145.228,455.304 146.508,452.792 146.956,449.496 L140.38,449.496 C140.156,451.032 139.604,452.256 138.724,453.168 C137.844,454.08 136.588,454.536 134.956,454.536 C133.9,454.536 133.004,454.296 132.268,453.816 C131.532,453.336 130.948,452.72 130.516,451.968 C130.084,451.216 129.772,450.376 129.58,449.448 C129.388,448.52 129.292,447.608 129.292,446.712 C129.292,445.784 129.388,444.848 129.58,443.904 C129.772,442.96 130.1,442.096 130.564,441.312 C131.028,440.528 131.628,439.888 132.364,439.392 C133.1,438.896 134.012,438.648 135.1,438.648 C138.012,438.648 139.692,440.072 140.14,442.92 L146.812,442.92 C146.716,441.32 146.332,439.936 145.66,438.768 C144.988,437.6 144.116,436.624 143.044,435.84 C141.972,435.056 140.756,434.472 139.396,434.088 C138.036,433.704 136.62,433.512 135.148,433.512 C133.132,433.512 131.34,433.848 129.772,434.52 C128.204,435.192 126.876,436.128 125.788,437.328 C124.7,438.528 123.876,439.952 123.316,441.6 C122.756,443.248 122.476,445.032 122.476,446.952 C122.476,448.808 122.78,450.512 123.388,452.064 C123.996,453.616 124.844,454.952 125.932,456.072 C127.02,457.192 128.34,458.064 129.892,458.688 C131.444,459.312 133.148,459.624 135.004,459.624 Z M160.168,459.624 C162.984,459.624 165.384,458.984 167.368,457.704 C169.352,456.424 170.824,454.296 171.784,451.32 L165.784,451.32 C165.56,452.088 164.952,452.816 163.96,453.504 C162.968,454.192 161.784,454.536 160.408,454.536 C158.488,454.536 157.016,454.04 155.992,453.048 C154.968,452.056 154.408,450.456 154.312,448.248 L172.216,448.248 C172.344,446.328 172.184,444.488 171.736,442.728 C171.288,440.968 170.56,439.4 169.552,438.024 C168.544,436.648 167.256,435.552 165.688,434.736 C164.12,433.92 162.28,433.512 160.168,433.512 C158.28,433.512 156.56,433.848 155.008,434.52 C153.456,435.192 152.12,436.112 151,437.28 C149.88,438.448 149.016,439.832 148.408,441.432 C147.8,443.032 147.496,444.76 147.496,446.616 C147.496,448.536 147.792,450.296 148.384,451.896 C148.976,453.496 149.816,454.872 150.904,456.024 C151.992,457.176 153.32,458.064 154.888,458.688 C156.456,459.312 158.216,459.624 160.168,459.624 Z M165.4,443.928 L154.312,443.928 C154.344,443.448 154.448,442.904 154.624,442.296 C154.8,441.688 155.104,441.112 155.536,440.568 C155.968,440.024 156.544,439.568 157.264,439.2 C157.984,438.832 158.888,438.648 159.976,438.648 C161.64,438.648 162.88,439.096 163.696,439.992 C164.512,440.888 165.08,442.2 165.4,443.928 Z M180.964,467.688 L180.964,455.928 L181.06,455.928 C181.892,457.144 182.956,458.064 184.252,458.688 C185.548,459.312 186.964,459.624 188.5,459.624 C190.324,459.624 191.916,459.272 193.276,458.568 C194.636,457.864 195.772,456.92 196.684,455.736 C197.596,454.552 198.276,453.192 198.724,451.656 C199.172,450.12 199.396,448.52 199.396,446.856 C199.396,445.096 199.172,443.408 198.724,441.792 C198.276,440.176 197.588,438.76 196.66,437.544 C195.732,436.328 194.564,435.352 193.156,434.616 C191.748,433.88 190.068,433.512 188.116,433.512 C186.58,433.512 185.172,433.816 183.892,434.424 C182.612,435.032 181.556,436.008 180.724,437.352 L180.628,437.352 L180.628,434.184 L174.148,434.184 L174.148,467.688 L180.964,467.688 Z M186.676,454.536 C185.588,454.536 184.66,454.312 183.892,453.864 C183.124,453.416 182.508,452.832 182.044,452.112 C181.58,451.392 181.244,450.552 181.036,449.592 C180.828,448.632 180.724,447.656 180.724,446.664 C180.724,445.64 180.82,444.648 181.012,443.688 C181.204,442.728 181.532,441.88 181.996,441.144 C182.46,440.408 183.068,439.808 183.82,439.344 C184.572,438.88 185.508,438.648 186.628,438.648 C187.716,438.648 188.636,438.88 189.388,439.344 C190.14,439.808 190.756,440.416 191.236,441.168 C191.716,441.92 192.06,442.776 192.268,443.736 C192.476,444.696 192.58,445.672 192.58,446.664 C192.58,447.656 192.484,448.632 192.292,449.592 C192.1,450.552 191.772,451.392 191.308,452.112 C190.844,452.832 190.236,453.416 189.484,453.864 C188.732,454.312 187.796,454.536 186.676,454.536 Z M209.2,459 L209.2,451.608 L201.664,451.608 L201.664,459 L209.2,459 Z" id="tricep."></path>
        </g>
    </g>
</svg>